<?xml version="1.0" encoding="utf-8"?>
<!-- Generator: Adobe Illustrator 24.0.2, SVG Export Plug-In . SVG Version: 6.00 Build 0)  -->
<svg version="1.1" id="Layer_2" xmlns="http://www.w3.org/2000/svg" xmlns:xlink="http://www.w3.org/1999/xlink" x="0px" y="0px"
	 viewBox="0 0 400 429.5" style="enable-background:new 0 0 1716.3 429.5;" xml:space="preserve">
<style type="text/css">
	.st0{fill:#FFFFFF;}
	.st1{fill:#F15A2B;}
</style>
<g>
	<path class="st1" d="M388.5,290.7c0,19.5-13.8,43.4-30.7,53.1l-132.3,76.4c-16.9,9.7-44.5,9.7-61.4,0L31.8,343.8
		C15,334.1,1.2,310.2,1.2,290.7V137.9c0-19.5,13.8-43.4,30.7-53.1L164.1,8.4c16.9-9.7,44.5-9.7,61.4,0l132.3,76.4
		c16.9,9.7,30.7,33.6,30.7,53.1L388.5,290.7L388.5,290.7z"/>
	<path class="st0" d="M157.2,178.9h175.3v-49.3H157.7c-25,0-45.8,8.6-61.6,25.5c-38.2,40.6-39.2,143-39.2,143h274.4v-92.6h-49.3
		v43.3H109.4c1.1-16.1,8.5-45,22.5-59.9C138.3,182.1,146.4,178.9,157.2,178.9L157.2,178.9z"/>
</g>
</svg>
